<?xml version="1.0" encoding="UTF-8" standalone="no"?>
<!DOCTYPE svg PUBLIC "-//W3C//DTD SVG 1.1//EN"
 "http://www.w3.org/Graphics/SVG/1.1/DTD/svg11.dtd">
<!-- Generated by graphviz version 2.40.1 (20161225.0304)
 -->
<!-- Title: graph Pages: 1 -->
<svg width="274pt" height="102pt"
 viewBox="0.00 0.00 274.00 102.08" xmlns="http://www.w3.org/2000/svg" xmlns:xlink="http://www.w3.org/1999/xlink">
<g id="graph0" class="graph" transform="scale(.7829 .7829) rotate(0) translate(4 126.4)">
<title>graph</title>
<polygon fill="#ffffff" stroke="transparent" points="-4,4 -4,-126.4 346,-126.4 346,4 -4,4"/>
<!-- N6 -->
<g id="node1" class="node">
<title>N6</title>
<polygon fill="#ffd700" stroke="#ffd700" points="54,-122.4 0,-122.4 0,-86.4 54,-86.4 54,-122.4"/>
<text text-anchor="middle" x="27" y="-100.8" font-family="Times,serif" font-size="12.00" fill="#000000">A</text>
</g>
<!-- N3 -->
<g id="node2" class="node">
<title>N3</title>
<polygon fill="#ffd700" stroke="#ffd700" points="139.1042,-36 58.8958,-36 58.8958,0 139.1042,0 139.1042,-36"/>
<text text-anchor="middle" x="99" y="-14.4" font-family="Times,serif" font-size="12.00" fill="#000000">ソーウ種</text>
</g>
<!-- N6&#45;&gt;N3 -->
<g id="edge1" class="edge">
<title>N6&#45;&gt;N3</title>
<path fill="none" stroke="#e41a1c" d="M42.2693,-86.0768C52.4563,-73.8525 66.0027,-57.5967 77.3035,-44.0358"/>
<polygon fill="#e41a1c" stroke="#e41a1c" points="80.2865,-45.9234 83.9996,-36.0005 74.9089,-41.4421 80.2865,-45.9234"/>
<text text-anchor="middle" x="78.3308" y="-57.6" font-family="Times,serif" font-size="12.00" fill="#e41a1c">type</text>
</g>
<!-- N2 -->
<g id="node3" class="node">
<title>N2</title>
<polygon fill="#ffd700" stroke="#ffd700" points="270,-122.4 216,-122.4 216,-86.4 270,-86.4 270,-122.4"/>
<text text-anchor="middle" x="243" y="-100.8" font-family="Times,serif" font-size="12.00" fill="#000000">B</text>
</g>
<!-- N0 -->
<g id="node4" class="node">
<title>N0</title>
<polygon fill="#ffd700" stroke="#ffd700" points="319.414,-36 238.586,-36 238.586,0 319.414,0 319.414,-36"/>
<text text-anchor="middle" x="279" y="-14.4" font-family="Times,serif" font-size="12.00" fill="#000000">トンホー種</text>
</g>
<!-- N2&#45;&gt;N0 -->
<g id="edge2" class="edge">
<title>N2&#45;&gt;N0</title>
<path fill="none" stroke="#e41a1c" d="M250.6347,-86.0768C255.5359,-74.3138 261.9926,-58.8178 267.5074,-45.5821"/>
<polygon fill="#e41a1c" stroke="#e41a1c" points="270.8843,-46.5775 271.4998,-36.0005 264.4228,-43.8851 270.8843,-46.5775"/>
<text text-anchor="middle" x="273.3308" y="-57.6" font-family="Times,serif" font-size="12.00" fill="#e41a1c">type</text>
</g>
<!-- N5 -->
<g id="node5" class="node">
<title>N5</title>
<polygon fill="#ffd700" stroke="#ffd700" points="126,-122.4 72,-122.4 72,-86.4 126,-86.4 126,-122.4"/>
<text text-anchor="middle" x="99" y="-100.8" font-family="Times,serif" font-size="12.00" fill="#000000">C</text>
</g>
<!-- N5&#45;&gt;N3 -->
<g id="edge3" class="edge">
<title>N5&#45;&gt;N3</title>
<path fill="none" stroke="#e41a1c" d="M99,-86.0768C99,-74.5444 99,-59.4241 99,-46.3633"/>
<polygon fill="#e41a1c" stroke="#e41a1c" points="102.5001,-46.0005 99,-36.0005 95.5001,-46.0006 102.5001,-46.0005"/>
<text text-anchor="middle" x="109.3308" y="-57.6" font-family="Times,serif" font-size="12.00" fill="#e41a1c">type</text>
</g>
<!-- N1 -->
<g id="node6" class="node">
<title>N1</title>
<polygon fill="#ffd700" stroke="#ffd700" points="342,-122.4 288,-122.4 288,-86.4 342,-86.4 342,-122.4"/>
<text text-anchor="middle" x="315" y="-100.8" font-family="Times,serif" font-size="12.00" fill="#000000">D</text>
</g>
<!-- N1&#45;&gt;N0 -->
<g id="edge4" class="edge">
<title>N1&#45;&gt;N0</title>
<path fill="none" stroke="#e41a1c" d="M307.3653,-86.0768C302.4641,-74.3138 296.0074,-58.8178 290.4926,-45.5821"/>
<polygon fill="#e41a1c" stroke="#e41a1c" points="293.5772,-43.8851 286.5002,-36.0005 287.1157,-46.5775 293.5772,-43.8851"/>
<text text-anchor="middle" x="309.3308" y="-57.6" font-family="Times,serif" font-size="12.00" fill="#e41a1c">type</text>
</g>
<!-- N4 -->
<g id="node7" class="node">
<title>N4</title>
<polygon fill="#ffd700" stroke="#ffd700" points="198,-122.4 144,-122.4 144,-86.4 198,-86.4 198,-122.4"/>
<text text-anchor="middle" x="171" y="-100.8" font-family="Times,serif" font-size="12.00" fill="#000000">E</text>
</g>
<!-- N4&#45;&gt;N3 -->
<g id="edge5" class="edge">
<title>N4&#45;&gt;N3</title>
<path fill="none" stroke="#e41a1c" d="M155.7307,-86.0768C145.5437,-73.8525 131.9973,-57.5967 120.6965,-44.0358"/>
<polygon fill="#e41a1c" stroke="#e41a1c" points="123.0911,-41.4421 114.0004,-36.0005 117.7135,-45.9234 123.0911,-41.4421"/>
<text text-anchor="middle" x="150.3308" y="-57.6" font-family="Times,serif" font-size="12.00" fill="#e41a1c">type</text>
</g>
</g>
</svg>
